<?xml version="1.0" encoding="UTF-8" standalone="no"?>
<svg width="48px" height="48px" viewBox="0 0 48 48" version="1.1" xmlns="http://www.w3.org/2000/svg" xmlns:xlink="http://www.w3.org/1999/xlink">
    <!-- Generator: Sketch 3.8.3 (29802) - http://www.bohemiancoding.com/sketch -->
    <title>logo_square_48</title>
    <desc>Created with Sketch.</desc>
    <defs></defs>
    <g id="Page-1" stroke="none" stroke-width="1" fill="none" fill-rule="evenodd">
        <g id="logo_square_48">
            <rect id="Rectangle-1-Copy-8" fill="#FFC112" x="0" y="0" width="48" height="48"></rect>
            <rect id="Rectangle-1-Copy-11" fill="#21A465" x="4" y="4" width="40" height="40"></rect>
            <g id="Shape-Copy-2-+-Shape-Copy" transform="translate(8.000000, 16.000000)">
                <path d="M28,6 C28,4.89555556 27.1044444,4 26,4 C24.8955556,4 24,4.89555556 24,6 C24,7.10444444 24.8955556,8 26,8 C27.1044444,8 28,7.10444444 28,6 Z M26,9 C23.108,9 20,10.4194444 20,12.175 L20,14 L32,14 L32,12.175 C32,10.4194444 28.892,9 26,9 L26,9 Z M8,6 C8,4.89555556 7.10444444,4 6,4 C4.89555556,4 4,4.89555556 4,6 C4,7.10444444 4.89555556,8 6,8 C7.10444444,8 8,7.10444444 8,6 Z M6,9 C3.108,9 0,10.4194444 0,12.175 L0,14 L12,14 L12,12.175 C12,10.4194444 8.892,9 6,9 L6,9 Z" id="Shape-Copy-2" fill="#57BB8A"></path>
                <path d="M16.0025,6 C17.6575,6 19,4.6575 19,3 C19,1.345 17.6575,0 16.0025,0 C14.345,0 13,1.345 13,3 C13,4.6575 14.345,6 16.0025,6 L16.0025,6 Z M8.17118029,11.6666667 L8.17118029,14 L24,14 L24,11.6666667 C24,9.08833333 19.9014663,7 16.0855901,7 C12.269714,7 8.17118029,9.08833333 8.17118029,11.6666667 Z" id="Shape-Copy" fill="#F7F7F7"></path>
            </g>
            <polygon id="Shape" fill="#F1F1F1" points="28 41 40 41 40 44 28 44"></polygon>
        </g>
    </g>
</svg>