<?xml version="1.0" encoding="UTF-8" standalone="no"?>
<svg width="36px" height="36px" viewBox="0 0 36 36" version="1.1" xmlns="http://www.w3.org/2000/svg" xmlns:xlink="http://www.w3.org/1999/xlink">
    <!-- Generator: Sketch 3.8.3 (29802) - http://www.bohemiancoding.com/sketch -->
    <title>logo_light_square_36</title>
    <desc>Created with Sketch.</desc>
    <defs></defs>
    <g id="Page-1" stroke="none" stroke-width="1" fill="none" fill-rule="evenodd">
        <g id="logo_light_square_36">
            <rect id="Rectangle-1-Copy-8" fill="#000000" x="0" y="0" width="36" height="36"></rect>
            <rect id="Rectangle-1-Copy-12" fill="#FFFFFF" x="3" y="3" width="30" height="30"></rect>
            <g id="Shape-Copy-2-+-Shape-Copy" transform="translate(6.000000, 13.000000)">
                <path d="M19.5,5 C20.3283333,5 21,4.32833333 21,3.5 C21,2.67166667 20.3283333,2 19.5,2 C18.6716667,2 18,2.67166667 18,3.5 C18,4.32833333 18.6716667,5 19.5,5 L19.5,5 Z M19.5,6 C17.331,6 15,7.13555556 15,8.54 L15,10 L24,10 L24,8.54 C24,7.13555556 21.669,6 19.5,6 L19.5,6 Z M4.5,5 C5.32833333,5 6,4.32833333 6,3.5 C6,2.67166667 5.32833333,2 4.5,2 C3.67166667,2 3,2.67166667 3,3.5 C3,4.32833333 3.67166667,5 4.5,5 L4.5,5 Z M4.5,6 C2.331,6 0,7.13555556 0,8.54 L0,10 L9,10 L9,8.54 C9,7.13555556 6.669,6 4.5,6 L4.5,6 Z" id="Shape-Copy-2" fill="#DEDEDE"></path>
                <path d="M14,2 C14,0.896666667 13.105,0 12.0016667,0 C10.8966667,0 10,0.896666667 10,2 C10,3.105 10.8966667,4 12.0016667,4 C13.105,4 14,3.105 14,2 Z M12,5 C9.10714286,5 6,6.49166667 6,8.33333333 L6,10 L18,10 L18,8.33333333 C18,6.49166667 14.8928571,5 12,5 L12,5 Z" id="Shape-Copy" fill="#000000"></path>
            </g>
            <polygon id="Shape" fill="#000000" points="21 31 30 31 30 33 21 33"></polygon>
        </g>
    </g>
</svg>